/* XPM */
static char *_dd7777a1b0c4ed3cc2132cde70695892V0GEDuABizq6mU8[] = {
/* columns rows colors chars-per-pixel */
"16 16 4 1 ",
"  c None",
". c #3C3C3C",
"X c #007800",
"o c #58D854",
/* pixels */
"      ......    ",
"    ..Xooooo..  ",
"   .ooooooo.XX. ",
"  .oooooooX..X. ",
" .oooooooo.  .. ",
" .oooooooo.     ",
".ooXoXoooo.     ",
".oo.o.ooooo.    ",
".oo.o.oooooo.   ",
".oooooooooooo.  ",
" .ooo.ooooooo.  ",
"  .ooooooooo.   ",
"   .........    ",
"      .X.       ",
"       .X.      ",
"        .       "
};
