/* XPM */
static char *c1a0c74a3e4c4c0a90976a663d6122f3peqUsuedbIN1R4S6[] = {
/* columns rows colors chars-per-pixel */
"64 64 10 1 ",
"  c #EEA260",
". c #EEA463",
"X c #EEA565",
"o c #EFA768",
"O c #F0B076",
"+ c #F0B279",
"@ c #F1B984",
"# c #F2BD89",
"$ c #F3C89A",
"% c #F4CDA2",
/* pixels */
"                                                                ",
"                                                                ",
"   .O++++++++++++++++++++++++++O.  .O+++++++++++++++++++++++++++",
"   o$%%%%%%%%%%%%%%%%%%%%%%%%%%$o  o$%%%%%%%%%%%%%%%%%%%%%%%%%%%",
"   o$%%%%%%%%%%%%%%%%%%%%%%%%%%$o  o$%%%%%%%%%%%%%%%%%%%%%%%%%%%",
"   o$%%%%%%%%%%%%%%%%%%%%%%%%%%$o  o$%%%%%%%%%%%%%%%%%%%%%%%%%%%",
"   o$%%%%%%%%%%%%%%%%%%%%%%%%%%$o  o$%%%%%%%%%%%%%%%%%%%%%%%%%%%",
"   o$%%%%%%%%%%%%%%%%%%%%%%%%%%$o  o$%%%%%%%%%%%%%%%%%%%%%%%%%%%",
"   o$%%%%%%%%%%%%%%%%%%%%%%%%%%$o  o$%%%%%%%%%%%%%%%%%%%%%%%%%%%",
"   o$%%%%%%%%%%%%%%%%%%%%%%%%%%$o  o$%%%%%%%%%%%%%%%%%%%%%%%%%%%",
"   o$%%%%%%%%%%%%%%%%%%%%%%%%%%$o  o$%%%%%%%%%%%%%%%%%%%%%%%%%%%",
"   o$%%%%%%%%%%%%%%%%%%%%%%%%%%$o  o$%%%%%%%%%%%%%%%%%%%%%%%%%%%",
"   o$%%%%%%%%%%%%%%%%%%%%%%%%%%$o  o$%%%%%%%%%%%%%%%%%%%%%%%%%%%",
"   o$%%%%%%%%%%%%%%%%%%%%%%%%%%$o  o$%%%%%%%%%%%%%%%%%%%%%%%%%%%",
"   X@##########################@X  X@###########################",
"                                                                ",
"                                                                ",
"                                                                ",
"+++++++++++O.  .O++++++++++++++++++++++++++O.  .O+++++++++++++++",
"%%%%%%%%%%%$o  o$%%%%%%%%%%%%%%%%%%%%%%%%%%$o  o$%%%%%%%%%%%%%%%",
"%%%%%%%%%%%$o  o$%%%%%%%%%%%%%%%%%%%%%%%%%%$o  o$%%%%%%%%%%%%%%%",
"%%%%%%%%%%%$o  o$%%%%%%%%%%%%%%%%%%%%%%%%%%$o  o$%%%%%%%%%%%%%%%",
"%%%%%%%%%%%$o  o$%%%%%%%%%%%%%%%%%%%%%%%%%%$o  o$%%%%%%%%%%%%%%%",
"%%%%%%%%%%%$o  o$%%%%%%%%%%%%%%%%%%%%%%%%%%$o  o$%%%%%%%%%%%%%%%",
"%%%%%%%%%%%$o  o$%%%%%%%%%%%%%%%%%%%%%%%%%%$o  o$%%%%%%%%%%%%%%%",
"%%%%%%%%%%%$o  o$%%%%%%%%%%%%%%%%%%%%%%%%%%$o  o$%%%%%%%%%%%%%%%",
"%%%%%%%%%%%$o  o$%%%%%%%%%%%%%%%%%%%%%%%%%%$o  o$%%%%%%%%%%%%%%%",
"%%%%%%%%%%%$o  o$%%%%%%%%%%%%%%%%%%%%%%%%%%$o  o$%%%%%%%%%%%%%%%",
"%%%%%%%%%%%$o  o$%%%%%%%%%%%%%%%%%%%%%%%%%%$o  o$%%%%%%%%%%%%%%%",
"%%%%%%%%%%%$o  o$%%%%%%%%%%%%%%%%%%%%%%%%%%$o  o$%%%%%%%%%%%%%%%",
"###########@X  X@##########################@X  X@###############",
"                                                                ",
"                                                                ",
"                                                                ",
"   .O++++++++++++++++++++++++++O.  .O+++++++++++++++++++++++++++",
"   o$%%%%%%%%%%%%%%%%%%%%%%%%%%$o  o$%%%%%%%%%%%%%%%%%%%%%%%%%%%",
"   o$%%%%%%%%%%%%%%%%%%%%%%%%%%$o  o$%%%%%%%%%%%%%%%%%%%%%%%%%%%",
"   o$%%%%%%%%%%%%%%%%%%%%%%%%%%$o  o$%%%%%%%%%%%%%%%%%%%%%%%%%%%",
"   o$%%%%%%%%%%%%%%%%%%%%%%%%%%$o  o$%%%%%%%%%%%%%%%%%%%%%%%%%%%",
"   o$%%%%%%%%%%%%%%%%%%%%%%%%%%$o  o$%%%%%%%%%%%%%%%%%%%%%%%%%%%",
"   o$%%%%%%%%%%%%%%%%%%%%%%%%%%$o  o$%%%%%%%%%%%%%%%%%%%%%%%%%%%",
"   o$%%%%%%%%%%%%%%%%%%%%%%%%%%$o  o$%%%%%%%%%%%%%%%%%%%%%%%%%%%",
"   o$%%%%%%%%%%%%%%%%%%%%%%%%%%$o  o$%%%%%%%%%%%%%%%%%%%%%%%%%%%",
"   o$%%%%%%%%%%%%%%%%%%%%%%%%%%$o  o$%%%%%%%%%%%%%%%%%%%%%%%%%%%",
"   o$%%%%%%%%%%%%%%%%%%%%%%%%%%$o  o$%%%%%%%%%%%%%%%%%%%%%%%%%%%",
"   o$%%%%%%%%%%%%%%%%%%%%%%%%%%$o  o$%%%%%%%%%%%%%%%%%%%%%%%%%%%",
"   X@##########################@X  X@###########################",
"                                                                ",
"                                                                ",
"                                                                ",
"+++++++++++O.  .O++++++++++++++++++++++++++O.  .O+++++++++++++++",
"%%%%%%%%%%%$o  o$%%%%%%%%%%%%%%%%%%%%%%%%%%$o  o$%%%%%%%%%%%%%%%",
"%%%%%%%%%%%$o  o$%%%%%%%%%%%%%%%%%%%%%%%%%%$o  o$%%%%%%%%%%%%%%%",
"%%%%%%%%%%%$o  o$%%%%%%%%%%%%%%%%%%%%%%%%%%$o  o$%%%%%%%%%%%%%%%",
"%%%%%%%%%%%$o  o$%%%%%%%%%%%%%%%%%%%%%%%%%%$o  o$%%%%%%%%%%%%%%%",
"%%%%%%%%%%%$o  o$%%%%%%%%%%%%%%%%%%%%%%%%%%$o  o$%%%%%%%%%%%%%%%",
"%%%%%%%%%%%$o  o$%%%%%%%%%%%%%%%%%%%%%%%%%%$o  o$%%%%%%%%%%%%%%%",
"%%%%%%%%%%%$o  o$%%%%%%%%%%%%%%%%%%%%%%%%%%$o  o$%%%%%%%%%%%%%%%",
"%%%%%%%%%%%$o  o$%%%%%%%%%%%%%%%%%%%%%%%%%%$o  o$%%%%%%%%%%%%%%%",
"%%%%%%%%%%%$o  o$%%%%%%%%%%%%%%%%%%%%%%%%%%$o  o$%%%%%%%%%%%%%%%",
"%%%%%%%%%%%$o  o$%%%%%%%%%%%%%%%%%%%%%%%%%%$o  o$%%%%%%%%%%%%%%%",
"%%%%%%%%%%%$o  o$%%%%%%%%%%%%%%%%%%%%%%%%%%$o  o$%%%%%%%%%%%%%%%",
"###########@X  X@##########################@X  X@###############",
"                                                                "
};
