/* XPM */
static char *_12e521207444803c67ea2514418e08dqscXykMunL1AYEMM[] = {
/* columns rows colors chars-per-pixel */
"128 128 20 1 ",
"  c #EEA260",
". c #EEA361",
"X c #EEA464",
"o c #EEA564",
"O c #EFA768",
"+ c #EFA869",
"@ c #EFA96C",
"# c #EFAA6C",
"$ c #EFAD71",
"% c #F0AF73",
"& c #F0AF74",
"* c #F0AF75",
"= c #F0B37A",
"- c #F1B57D",
"; c #F1BA85",
": c #F2BE8A",
"> c #F2BF8D",
", c #F3C596",
"< c #F4CA9E",
"1 c #F4CDA2",
/* pixels */
"                                                                                                                                ",
"                                                                                                                                ",
"                                  ..           .           .                      ..           .                       .        ",
"           .           .           .           .           .                       .           .           .           .        ",
"       X++@#@@@@@###########@###########+###########@#########+.      . +###+###########+###########@###########+###########@###",
"       @=;;;;;;;;;;;;;;;;;;;;;;;;;;;;;;;;;;;;;;;;;;;;;;;;;;;;;;%+     .+-;;;;;;;;;;;;;;;;;;;;;;;;;;;;;;;;;;;;;;;;;;;;;;;;;;;;;;;",
"       %;<<<<<<<<<<<<<<<<<<<<<<<<<<<<<<<<<<<<<<<<<<<<<<<<<<<1<<,*.     *:<<<<<1<<<<<<<<<<<<<<<<<<<<<<<<<<<<<<<<<<<<<<<<<<<<<<<<<",
"       *,11111111111111111111111111111111111111111111111111111,,*.     *,1111111111111111111111111111111111111111111111111111111",
"       *>111111111111111111111111111111111111111111111111111111;*      *;1111111111111111111111111111111111111111111111111111111",
"       *>111111111111111111111111111111111111111111111111111111,*      *:1111111111111111111111111111111111111111111111111111111",
"       *>11111111111111111111111111111111111111111111111111111,,*      $,1111111111111111111111111111111111111111111111111111111",
"       *>111111111111111111111111111111111111111111111111111111;*      =:<111111111111111111111111111111111111111111111111111111",
"       *>111111111111111111111111111111111111111111111111111111,*      $>1111111111111111111111111111111111111111111111111111111",
"       *>11111111111111111111111111111111111111111111111111111<;*      $>1111111111111111111111111111111111111111111111111111111",
"       *>111111111111111111111111111111111111111111111111111111,*     .*>1111111111111111111111111111111111111111111111111111111",
"       *>111111111111111111111111111111111111111111111111111111,*    ..$>1111111111111111111111111111111111111111111111111111111",
"       *,11111111111111111111111111111111111111111111111111111,,*      *>1111111111111111111111111111111111111111111111111111111",
"       *,111111111111111111111111111111111111111111111111111111;*      *>1111111111111111111111111111111111111111111111111111111",
"       *;,11111111111111111111111111111111111111111111111111111,*      *>1111111111111111111111111111111111111111111111111111111",
"       *,11111111111111111111111111111111111111111111111111111,,*      *:1111111111111111111111111111111111111111111111111111111",
"       %;<<1111111111111111111111111111111111111111111111111111:*      *:<111111111111111111111111111111111111111111111111111111",
"       %,<11111111111111111111111111111111111111111111111111111,*      *,1111111111111111111111111111111111111111111111111111111",
"       $,11111111111111111111111111111111111111111111111111111,,*      *:<111111111111111111111111111111111111111111111111111111",
"       #,11111111111111111111111111111111111111111111111111111<;*      *,1111111111111111111111111111111111111111111111111111111",
"       *;111111111111111111111111111111111111111111111111111111,*      *,1111111111111111111111111111111111111111111111111111111",
"       *,11111111111111111111111111111111111111111111111111111<;*      *:1111111111111111111111111111111111111111111111111111111",
"       *,,11111111111111111111111111111111111111111111111111111,*      *:1111111111111111111111111111111111111111111111111111111",
"       *,111111111111111111111111111111111111111111111111111111,*      *>1111111111111111111111111111111111111111111111111111111",
"       $;,,,,,,,,,,,,,,,,,,,,,,,,,,,,,,,,,,,,,,,,,,,,,,,,,,,,,,;$X     *;,,,,,,,,,,,,,,,,,,,,,,,,,,,,,,,,,,,,,,,,,,,,,,,,,,,,,,,",
"      .o*=------------------=----------------------------------%X      +$-------------------------------------------------------",
"      . .XX.oo.XX.oo.XX.oo.Xo.XX.XX.oo.XX.oo.XX..o.XX..X.XX.XXX.       X XXXXXXXXXX.XXX.o.oXX.o.oo.XX.oo.XX.oo.XX.oo.XX.oo.XX.XX",
"        ............................................X...... .X              X     . ............................................",
"                                                                                                .                               ",
"                                                                                                                                ",
"                   .                  ..          ..           .                                          ..          ..        ",
"       X           X                   X           .           .      ..       .                          .o           .        ",
"################@@@@@@@O..    . +++@@@@@####+###########+#######@#######+###+@@#@###@@@XX       X###+###@###@@+++@##########+@##",
";;;;;;;;;;;;;;;;;;;;;;;=@.    .+=;;;;;;;;;;;;;;;;;;;;;;;;;;;;;;;;;;;;;;;;;;;;;;;;;;;;;;=@      @-;;;;;;;;;;;;;;;;;;;;;;;;;;;;;;;",
"<<<<<<<<<<<<<<<<<<<<<<<:%      %:<<<<<<<<<<<<<<<<<<<<<<<<<<<<<<<<<<<<<<<<<<<<<<<<<1<<<<;*      %,,<<<<<<<<<<<<<<<<<<<<<<<<<<<<<<",
"11111111111111111111111>%.     *,<11111111111111111111111111111111111111111111111111111,%      *,1111111111111111111111111111111",
"11111111111111111111111>*      *,111111111111111111111111111111111111111111111111111111,*      *;1111111111111111111111111111111",
"11111111111111111111111>*      *:11111111111111111111111111111111111111111111111111111<:*      *:1111111111111111111111111111111",
"11111111111111111111111>*      *:111111111111111111111111111111111111111111111111111111,*      *,1111111111111111111111111111111",
"11111111111111111111111>*      *>111111111111111111111111111111111111111111111111111111;*      *:1111111111111111111111111111111",
"11111111111111111111111>*      *>111111111111111111111111111111111111111111111111111111:*      *:1111111111111111111111111111111",
"11111111111111111111111>*      *>11111111111111111111111111111111111111111111111111111<,*      *:1111111111111111111111111111111",
"11111111111111111111111>*      *>11111111111111111111111111111111111111111111111111111<,*      *,1111111111111111111111111111111",
"11111111111111111111111>*      *>11111111111111111111111111111111111111111111111111111<:*      *;1111111111111111111111111111111",
"11111111111111111111111,*      *>111111111111111111111111111111111111111111111111111111>$      *,1111111111111111111111111111111",
"1111111111111111111111,,*      *>111111111111111111111111111111111111111111111111111111>=      *:1111111111111111111111111111111",
"11111111111111111111111,*      *>111111111111111111111111111111111111111111111111111111>*      *:1111111111111111111111111111111",
"111111111111111111111,,,*      *>111111111111111111111111111111111111111111111111111111>*      *:1111111111111111111111111111111",
"11111111111111111111111,*      *>111111111111111111111111111111111111111111111111111111>*      *>1111111111111111111111111111111",
"1111111111111111111111,,*      *>111111111111111111111111111111111111111111111111111111>*      *>1111111111111111111111111111111",
"11111111111111111111111,*      *>111111111111111111111111111111111111111111111111111111>*      *>1111111111111111111111111111111",
"1111111111111111111111<;*      *>111111111111111111111111111111111111111111111111111111>*      *>1111111111111111111111111111111",
"11111111111111111111111;#.     *>111111111111111111111111111111111111111111111111111111:$     .->1111111111111111111111111111111",
"11111111111111111111111,%.     =>111111111111111111111111111111111111111111111111111111:$      *>1111111111111111111111111111111",
"1111111111111111111111,,%      %>111111111111111111111111111111111111111111111111111111:=      *>1111111111111111111111111111111",
"11111111111111111111111,*      %>111111111111111111111111111111111111111111111111111111,$      $>1111111111111111111111111111111",
",,,,,,,,,,,,,,,,,,,,,,,;%      #;,,,,,,,,,,,,,,,,,,,,,,,,,,,,,,,,,,,,,,,,,,,,,,,,,,,,,,;$      @;,,,,,,,,,,,,,,,,,,,,,,,,,,,,,,,",
"-=-----------------=---*#      #$---------------------------------------------------==;*O      +$-------------------------------",
"XXX.X.oXX.o.oXX...XXo.o.       .X.XXX.o.oXX.o.oXX.o.oXX.o.oXX.o.X.oo.XX.oo.XX.XXXXXXXXXX      .X.X.XX.oo.XX.oo.Xo.oo.oo.oo.oo..o",
"  ................o.....        . ..............................................  X            .................................",
"                                                                .                                                               ",
"                                                                .                                                               ",
"                              .                       ..                                      ..          ..          ..        ",
"       .       .       .      ..       .       .      ..       .                   .           .           .           .        ",
"       ..@@#@@##@#######@@@@@@@@@#######@#######@###@###@@@@@@@.      . +###+###@###@@@@+###########+###########+@##########+@##",
"       o-;;;;;;;;;;;;;;;;;;;;;;;;;;;;;;;;;;;;;;;;;;;;;;;;;;;;;;-+     .+-;;;;;;;;;;;;;;;;;;;;;;;;;;;;;;;;;;;;;;;;;;;;;;;;;;;;;;;",
"      .$,<<<<<<<<<<<<<<<<<<<<<<<<<<<<<<<<<<<<<<<<<<<<<<<<<<<<<<:*.     *:<<<<<1<<<<<<<<<<<<<<<<<<<<<<<<<<<<<<<<<<<<<<<<<<<<<<<<<",
"       #,111111111111111111111111111111111111111111111111111111>*.     *,1111111111111111111111111111111111111111111111111111111",
"       %:<11111111111111111111111111111111111111111111111111111>*      *;1111111111111111111111111111111111111111111111111111111",
"       %,111111111111111111111111111111111111111111111111111111>*      *:1111111111111111111111111111111111111111111111111111111",
"       -;<11111111111111111111111111111111111111111111111111111>*      *,1111111111111111111111111111111111111111111111111111111",
"       $,111111111111111111111111111111111111111111111111111111>*      *:<111111111111111111111111111111111111111111111111111111",
"       %;111111111111111111111111111111111111111111111111111111>*      *>1111111111111111111111111111111111111111111111111111111",
"       *,111111111111111111111111111111111111111111111111111111>*      *>1111111111111111111111111111111111111111111111111111111",
"       *;111111111111111111111111111111111111111111111111111111:*      *>1111111111111111111111111111111111111111111111111111111",
"       *,111111111111111111111111111111111111111111111111111111:*      $>1111111111111111111111111111111111111111111111111111111",
"       *,<11111111111111111111111111111111111111111111111111111:*      *,<<11111111111111111111111111111111111111111111111111111",
"       *,<11111111111111111111111111111111111111111111111111111,*      *:1111111111111111111111111111111111111111111111111111111",
"       *;<11111111111111111111111111111111111111111111111111111:*      *;1111111111111111111111111111111111111111111111111111111",
"       *,<11111111111111111111111111111111111111111111111111111;*      *,1111111111111111111111111111111111111111111111111111111",
"       *,111111111111111111111111111111111111111111111111111111,*      *;1111111111111111111111111111111111111111111111111111111",
"       *;111111111111111111111111111111111111111111111111111111:*      *,1111111111111111111111111111111111111111111111111111111",
"       *:111111111111111111111111111111111111111111111111111111:*      *:<111111111111111111111111111111111111111111111111111111",
"       *,111111111111111111111111111111111111111111111111111111,*      *,1111111111111111111111111111111111111111111111111111111",
"      .=;11111111111111111111111111111111111111111111111111111<:*      *,1111111111111111111111111111111111111111111111111111111",
"      .$:111111111111111111111111111111111111111111111111111111,*      *:<111111111111111111111111111111111111111111111111111111",
"      .$,111111111111111111111111111111111111111111111111111111:*      *>1111111111111111111111111111111111111111111111111111111",
"      o$:<11111111111111111111111111111111111111111111111111111,*      *>1111111111111111111111111111111111111111111111111111111",
"       @;,,,,,,,,,,,,,,,,,,,,,,,,,,,,,,,,,,,,,,,,,,,,,,,,,,,,,,;*      %;,,,,,,,,,,,,,,,,,,,,,,,,,,,,,,,,,,,,,,,,,,,,,,,,,,,,,,,",
"       O$------------------------------------------------------$X      +$-------------------------------------------------------",
"      .Xoo.XX..o.Xo.oo.oo.oo.oooo.oo.oo.oo.oo..o.XX.XoXXXXXX.X.        X XXXX.XX..ooo.ooo.ooo.oooo.XX.oo.XX.oo.Xo.oo.oo.oo.oo.oo",
"       ...... ..............  ......... .. ...........      ...             X........ ... ... ..................................",
"                                                                                                .                               ",
"                                                                                                                                ",
"          ..          ..           .          ..          ..                                              ..                    ",
"           o           .           .           .           .           .       .       .                  ..           .        ",
"@@@@@@@@######@@+#####@.       ..+####+++###########+@##########@#######@###+@##+###@@#XX       o@@+O@@@@@@@@@@@@@##########@###",
";;;;;;;;;;;;;;;;;;;;;;;-@     .#-;;;;;;;;;;;;;;;;;;;;;;;;;;;;;;;;;;;;;;;;;;;;;;;;;;;;;;=@      @-;;;;;;;;;;;;;;;;;;;;;;;;;;;;;;;",
"<<<<<<<<<<<<<<<<<<<<<<<;*     .%;<<<<<<<1<<<<<<<<<<<<<<<<<<<<<<<<<<<<<<<<<<<<<<<<<1<<<<;*      *,,<<<<1<<<<<<<<<<<<<<<<<<<<<<<<<",
"11111111111111111111111,*     .*,111111111111111111111111111111111111111111111111111111,%      *,1111111111111111111111111111111",
"11111111111111111111111>*      *;111111111111111111111111111111111111111111111111111111,*      *;1111111111111111111111111111111",
"11111111111111111111111>*      *,111111111111111111111111111111111111111111111111111111:*      *:1111111111111111111111111111111",
"11111111111111111111111>*      *:<11111111111111111111111111111111111111111111111111111:*      *,1111111111111111111111111111111",
"11111111111111111111111>*      *,111111111111111111111111111111111111111111111111111111>*      *:1111111111111111111111111111111",
"11111111111111111111111>*      *;<11111111111111111111111111111111111111111111111111111>*      *:1111111111111111111111111111111",
"11111111111111111111111:*      *,111111111111111111111111111111111111111111111111111111>*      *:1111111111111111111111111111111",
"1111111111111111111111<:*      *;111111111111111111111111111111111111111111111111111111>*      *>1111111111111111111111111111111",
"11111111111111111111111,*      *,111111111111111111111111111111111111111111111111111111>*      *>1111111111111111111111111111111",
"11111111111111111111111>$.     $:<11111111111111111111111111111111111111111111111111111>*      *,1111111111111111111111111111111",
"11111111111111111111111>$.    X$,111111111111111111111111111111111111111111111111111111>*      *:1111111111111111111111111111111",
"11111111111111111111111>=..    $;<11111111111111111111111111111111111111111111111111111>*      *:1111111111111111111111111111111",
"11111111111111111111111>$...  X*,111111111111111111111111111111111111111111111111111111>*      *:1111111111111111111111111111111",
"11111111111111111111111>*      $;111111111111111111111111111111111111111111111111111111>*      *>1111111111111111111111111111111",
"11111111111111111111111>*     X*,111111111111111111111111111111111111111111111111111111>*      *>1111111111111111111111111111111",
"11111111111111111111111>*      $:<11111111111111111111111111111111111111111111111111111>*      *>1111111111111111111111111111111",
"11111111111111111111111>*     X*,111111111111111111111111111111111111111111111111111111>*      *>1111111111111111111111111111111",
"11111111111111111111111:*      *;<11111111111111111111111111111111111111111111111111111:$    ..->1111111111111111111111111111111",
"11111111111111111111111;*      *,111111111111111111111111111111111111111111111111111111:$    ..$>1111111111111111111111111111111",
"11111111111111111111111,*      *,,11111111111111111111111111111111111111111111111111111:*X    .$>1111111111111111111111111111111",
"1111111111111111111111<,*      *,111111111111111111111111111111111111111111111111111111,$     .$>1111111111111111111111111111111",
",,,,,,,,,,,,,,,,,,,,,,,;$      *;,,,,,,,,,,,,,,,,,,,,,,,,,,,,,,,,,,,,,,,,,,,,,,,,,,,,,,;$      @;,,,,,,,,,,,,,,,,,,,,,,,,,,,,,,,",
"---=------------=---;==*O      O*---------------------------------------------------==;$@      @$-------------------------------",
"ooXXXXXXXXXXXX.XX.XXXXXX         .X.oo.XX.oo.XX.oo.XX.oo.XX.oo.XX.oo.XX.oo.XX.XXXXXXXXXX      .X.X.XX.oo.oo.oo.oo.oo.oo.oo.oo...",
".. .....   .........            ................................................  X            ........................... ....."
};
