/* XPM */
static char *result[] = {
/* columns rows colors chars-per-pixel */
"42 40 10 1 ",
"  c #731D19",
". c #443829",
"X c #304D2E",
"o c #566424",
"O c #911812",
"+ c #9D8668",
"@ c #D5BFA3",
"# c #EED8BB",
"$ c #FFF7C2",
"% c None",
/* pixels */
"%%%%%%%%%%%%%%%%%oo%%%%%  %%%%%%%%%%%%%%%%",
"%%%%%%%%%%%%%%%%%oo.... OO %%%%%%%%%%%%%%%",
"%%%%%%%%%%%O%%%%...  O$ O  %%%%%%%%%%%%%%%",
"%%%%%%%%%%%%o%.OO$$ O o$  ..%%%O%%%%%%%%%%",
"%%%%%%%%%%%%.o$OO##O @o@o#$$..o%%%%%%%%%%%",
"%%%%%%%%%%%.$$##oO o@#o#oOO#$$.%%%%%%%%%%%",
"%%%%%%%%OO.$##@#o  o###o#OO@##$.%%%%%%%%%%",
"%%%%%%%%O $  #@@#oXX  #X###o###$.%%o%%%%%%",
"%%%%%%%%.$ OO @@##XX  @X  #o@#o#$.o%%%%%%%",
"%%%%%%%%.$ O  O #@.X%%. OO @OOo#@.%%%%%%%%",
"%%%%%%OO$#o  o  @.%%%%%  O #OOo##@.%%%%%%%",
"%%%%%OOOO#@oo#oX.%%%%%%%  X###o@#o.%O%%%%%",
"%%%%%OOOO# oo#@XX%%%%%%%%%X@##o##o@o%%%%%%",
"%%%%%%OO#OO oX.%%%%%%%%%%% .@Oo@#oo.%%%%%%",
"%%%%%%.o##  oXX%%%%%%%%%%%%.OOOo@oo.%o%%%%",
"%%%%o.+#o#oo  X%%%%%%%%%%%%%.O#ooOo+o%%%%%",
"%%%%%oOOo## OO %%%%%%%%%%%%%.X#ooo#+.%%%%%",
"%%%%%oOO#o# O  %%%%%%%%%%%%%X@#oo##+oo%%%%",
"%%%%%.oo#o@#  %%%%%%%%%%%%%%  oo  @+.%%%%%",
"o%%%%.oo##O +.%%%%%%%%%%%%%%  o OO +.%%o%%",
".o.o..OO##  o.. .............XX O  +..o...",
"###o#.OOo##oo+o$$o$oo#$#XX##+XXo  @+.#####",
"@@@##.+oo##@+o@oo####o@@##X@XX#ooo@+.@@@##",
"@@@@@.+#ooO@+XX@@o@@@@o@@o@XX@OoO #+.@@@@@",
"+++@@o+O#o##+ ++++X+@@@o+X++X@X@  #o.@@@++",
"+++++.o##@oo+X++++X++++X+X+++Xo@@##o.+++++",
"......o##O#Oo......X....X...XX##@#o ......",
"%%%%%.+o#@@#+o%%%%%%XXXX%%%%.X##@oo+.%%%%%",
"%%%%%.+o#@@#+.%%%%%%%%%%%%%%X@##oo#+.%%%%%",
"%%%%o.+#o@OO+.%%%%%%%%%%%%%%OO#Oo#@+.%%%%%",
".....o+#o#OO+...............OO#X##@+......",
"#####.+@#o@X++#$o####$#o$o$#+@XOO#@o.#####",
"@@##oo+@#o##X+@@o#@#@##o##o#+XXOO#o+.###@@",
"@@@@@.o@#Oo#O @@#o#@#@o@@@oOOX##o##+.@@@@@",
"++@@@.+oo#o#  +++o@@@o@@o++OOX@o+@oo.@@+++",
"+++++.++#ooX+X+o++o+o++oo++oo+o@++@+.+++o+",
".o....+o++ooXX oo.o....oo.  .ooo++@+...oo.",
"%o%%%.+o+oo++X%%o%%%%%%o%%  .o+oo++o.%%oo%",
"%%%%%%.o.oo..%%%%%%%%%%%%%%%%..oo..o%%%o%%",
"%%%%%%%%%o%%%%%%%%%%%%%%%%%%%%%%o%%%%%%%%%"
};
