/* XPM */
static char *result[] = {
/* columns rows colors chars-per-pixel */
"130 130 4 1 ",
"  c black",
". c #3C3B3C",
"X c #57D853",
"o c #0E7803",
/* pixels */
"                                                                                                                                  ",
"                                                                                                                                  ",
"                                        ................................                                                          ",
"                                        ................................                                                          ",
"                                        ................................                                                          ",
"                                        ................................                                                          ",
"                                        ................................                                                          ",
"                                        ................................                                                          ",
"                                        ................................                                                          ",
"                                        ................................                                                          ",
"                        ................XXXXXXXXXXXXXXXXXXXXXXXXoooooooo................                                          ",
"                        ................XXXXXXXXXXXXXXXXXXXXXXXXoooooooo................                                          ",
"                        ................XXXXXXXXXXXXXXXXXXXXXXXXoooooooo................                                          ",
"                        ................XXXXXXXXXXXXXXXXXXXXXXXXoooooooo................                                          ",
"                        ................XXXXXXXXXXXXXXXXXXXXXXXXoooooooo................                                          ",
"                        ................XXXXXXXXXXXXXXXXXXXXXXXXoooooooo................                                          ",
"                        ................XXXXXXXXXXXXXXXXXXXXXXXXoooooooo................                                          ",
"                        ................XXXXXXXXXXXXXXXXXXXXXXXXoooooooo................                                          ",
"                ........XXXXXXXXXXXXXXXXXXXXXXXXoooooooo........................................                                  ",
"                ........XXXXXXXXXXXXXXXXXXXXXXXXoooooooo........................................                                  ",
"                ........XXXXXXXXXXXXXXXXXXXXXXXXoooooooo........................................                                  ",
"                ........XXXXXXXXXXXXXXXXXXXXXXXXoooooooo........................................                                  ",
"                ........XXXXXXXXXXXXXXXXXXXXXXXXoooooooo........................................                                  ",
"                ........XXXXXXXXXXXXXXXXXXXXXXXXoooooooo........................................                                  ",
"                ........XXXXXXXXXXXXXXXXXXXXXXXXoooooooo........................................                                  ",
"                ........XXXXXXXXXXXXXXXXXXXXXXXXoooooooo........................................                                  ",
"        ........XXXXXXXXXXXXXXXXoooooooo................ooooooooXXXXXXXXXXXXXXXXXXXXXXXXoooooooo........                          ",
"        ........XXXXXXXXXXXXXXXXoooooooo................ooooooooXXXXXXXXXXXXXXXXXXXXXXXXoooooooo........                          ",
"        ........XXXXXXXXXXXXXXXXoooooooo................ooooooooXXXXXXXXXXXXXXXXXXXXXXXXoooooooo........                          ",
"        ........XXXXXXXXXXXXXXXXoooooooo................ooooooooXXXXXXXXXXXXXXXXXXXXXXXXoooooooo........                          ",
"        ........XXXXXXXXXXXXXXXXoooooooo................ooooooooXXXXXXXXXXXXXXXXXXXXXXXXoooooooo........                          ",
"        ........XXXXXXXXXXXXXXXXoooooooo................ooooooooXXXXXXXXXXXXXXXXXXXXXXXXoooooooo........                          ",
"        ........XXXXXXXXXXXXXXXXoooooooo................ooooooooXXXXXXXXXXXXXXXXXXXXXXXXoooooooo........                          ",
"        ........XXXXXXXXXXXXXXXXoooooooo................ooooooooXXXXXXXXXXXXXXXXXXXXXXXXoooooooo........                          ",
"        ........oooooooo................ooooooooXXXXXXXXXXXXXXXXXXXXXXXXXXXXXXXXXXXXXXXXXXXXXXXX........                          ",
"        ........oooooooo................ooooooooXXXXXXXXXXXXXXXXXXXXXXXXXXXXXXXXXXXXXXXXXXXXXXXX........                          ",
"        ........oooooooo................ooooooooXXXXXXXXXXXXXXXXXXXXXXXXXXXXXXXXXXXXXXXXXXXXXXXX........                          ",
"        ........oooooooo................ooooooooXXXXXXXXXXXXXXXXXXXXXXXXXXXXXXXXXXXXXXXXXXXXXXXX........                          ",
"        ........oooooooo................ooooooooXXXXXXXXXXXXXXXXXXXXXXXXXXXXXXXXXXXXXXXXXXXXXXXX........                          ",
"        ........oooooooo................ooooooooXXXXXXXXXXXXXXXXXXXXXXXXXXXXXXXXXXXXXXXXXXXXXXXX........                          ",
"        ........oooooooo................ooooooooXXXXXXXXXXXXXXXXXXXXXXXXXXXXXXXXXXXXXXXXXXXXXXXX........                          ",
"        ........oooooooo................ooooooooXXXXXXXXXXXXXXXXXXXXXXXXXXXXXXXXXXXXXXXXXXXXXXXX........                          ",
"                ........        ........XXXXXXXXXXXXXXXXXXXXXXXXXXXXXXXXXXXXXXXXXXXXXXXXXXXXXXXXXXXXXXXX........                  ",
"                ........        ........XXXXXXXXXXXXXXXXXXXXXXXXXXXXXXXXXXXXXXXXXXXXXXXXXXXXXXXXXXXXXXXX........                  ",
"                ........        ........XXXXXXXXXXXXXXXXXXXXXXXXXXXXXXXXXXXXXXXXXXXXXXXXXXXXXXXXXXXXXXXX........                  ",
"                ........        ........XXXXXXXXXXXXXXXXXXXXXXXXXXXXXXXXXXXXXXXXXXXXXXXXXXXXXXXXXXXXXXXX........                  ",
"                ........        ........XXXXXXXXXXXXXXXXXXXXXXXXXXXXXXXXXXXXXXXXXXXXXXXXXXXXXXXXXXXXXXXX........                  ",
"                ........        ........XXXXXXXXXXXXXXXXXXXXXXXXXXXXXXXXXXXXXXXXXXXXXXXXXXXXXXXXXXXXXXXX........                  ",
"                ........        ........XXXXXXXXXXXXXXXXXXXXXXXXXXXXXXXXXXXXXXXXXXXXXXXXXXXXXXXXXXXXXXXX........                  ",
"                ........        ........XXXXXXXXXXXXXXXXXXXXXXXXXXXXXXXXXXXXXXXXXXXXXXXXXXXXXXXXXXXXXXXX........                  ",
"                                ........XXXXXXXXooooooooXXXXXXXXooooooooXXXXXXXXXXXXXXXXXXXXXXXXXXXXXXXX........                  ",
"                                ........XXXXXXXXooooooooXXXXXXXXooooooooXXXXXXXXXXXXXXXXXXXXXXXXXXXXXXXX........                  ",
"                                ........XXXXXXXXooooooooXXXXXXXXooooooooXXXXXXXXXXXXXXXXXXXXXXXXXXXXXXXX........                  ",
"                                ........XXXXXXXXooooooooXXXXXXXXooooooooXXXXXXXXXXXXXXXXXXXXXXXXXXXXXXXX........                  ",
"                                ........XXXXXXXXooooooooXXXXXXXXooooooooXXXXXXXXXXXXXXXXXXXXXXXXXXXXXXXX........                  ",
"                                ........XXXXXXXXooooooooXXXXXXXXooooooooXXXXXXXXXXXXXXXXXXXXXXXXXXXXXXXX........                  ",
"                                ........XXXXXXXXooooooooXXXXXXXXooooooooXXXXXXXXXXXXXXXXXXXXXXXXXXXXXXXX........                  ",
"                                ........XXXXXXXXooooooooXXXXXXXXooooooooXXXXXXXXXXXXXXXXXXXXXXXXXXXXXXXX........                  ",
"                        ........XXXXXXXXXXXXXXXX........XXXXXXXX........XXXXXXXXXXXXXXXXXXXXXXXXXXXXXXXXXXXXXXXX........          ",
"                        ........XXXXXXXXXXXXXXXX........XXXXXXXX........XXXXXXXXXXXXXXXXXXXXXXXXXXXXXXXXXXXXXXXX........          ",
"                        ........XXXXXXXXXXXXXXXX........XXXXXXXX........XXXXXXXXXXXXXXXXXXXXXXXXXXXXXXXXXXXXXXXX........          ",
"                        ........XXXXXXXXXXXXXXXX........XXXXXXXX........XXXXXXXXXXXXXXXXXXXXXXXXXXXXXXXXXXXXXXXX........          ",
"                        ........XXXXXXXXXXXXXXXX........XXXXXXXX........XXXXXXXXXXXXXXXXXXXXXXXXXXXXXXXXXXXXXXXX........          ",
"                        ........XXXXXXXXXXXXXXXX........XXXXXXXX........XXXXXXXXXXXXXXXXXXXXXXXXXXXXXXXXXXXXXXXX........          ",
"                        ........XXXXXXXXXXXXXXXX........XXXXXXXX........XXXXXXXXXXXXXXXXXXXXXXXXXXXXXXXXXXXXXXXX........          ",
"                        ........XXXXXXXXXXXXXXXX........XXXXXXXX........XXXXXXXXXXXXXXXXXXXXXXXXXXXXXXXXXXXXXXXX........          ",
"                ........XXXXXXXXXXXXXXXXXXXXXXXX........XXXXXXXX........XXXXXXXXXXXXXXXXXXXXXXXXXXXXXXXXXXXXXXXX........          ",
"                ........XXXXXXXXXXXXXXXXXXXXXXXX........XXXXXXXX........XXXXXXXXXXXXXXXXXXXXXXXXXXXXXXXXXXXXXXXX........          ",
"                ........XXXXXXXXXXXXXXXXXXXXXXXX........XXXXXXXX........XXXXXXXXXXXXXXXXXXXXXXXXXXXXXXXXXXXXXXXX........          ",
"                ........XXXXXXXXXXXXXXXXXXXXXXXX........XXXXXXXX........XXXXXXXXXXXXXXXXXXXXXXXXXXXXXXXXXXXXXXXX........          ",
"                ........XXXXXXXXXXXXXXXXXXXXXXXX........XXXXXXXX........XXXXXXXXXXXXXXXXXXXXXXXXXXXXXXXXXXXXXXXX........          ",
"                ........XXXXXXXXXXXXXXXXXXXXXXXX........XXXXXXXX........XXXXXXXXXXXXXXXXXXXXXXXXXXXXXXXXXXXXXXXX........          ",
"                ........XXXXXXXXXXXXXXXXXXXXXXXX........XXXXXXXX........XXXXXXXXXXXXXXXXXXXXXXXXXXXXXXXXXXXXXXXX........          ",
"                ........XXXXXXXXXXXXXXXXXXXXXXXX........XXXXXXXX........XXXXXXXXXXXXXXXXXXXXXXXXXXXXXXXXXXXXXXXX........          ",
"        ........XXXXXXXXXXXXXXXXXXXXXXXXXXXXXXXXXXXXXXXXXXXXXXXXXXXXXXXXXXXXXXXXXXXXXXXXXXXXXXXXXXXXXXXXXXXXXXXX........          ",
"        ........XXXXXXXXXXXXXXXXXXXXXXXXXXXXXXXXXXXXXXXXXXXXXXXXXXXXXXXXXXXXXXXXXXXXXXXXXXXXXXXXXXXXXXXXXXXXXXXX........          ",
"        ........XXXXXXXXXXXXXXXXXXXXXXXXXXXXXXXXXXXXXXXXXXXXXXXXXXXXXXXXXXXXXXXXXXXXXXXXXXXXXXXXXXXXXXXXXXXXXXXX........          ",
"        ........XXXXXXXXXXXXXXXXXXXXXXXXXXXXXXXXXXXXXXXXXXXXXXXXXXXXXXXXXXXXXXXXXXXXXXXXXXXXXXXXXXXXXXXXXXXXXXXX........          ",
"        ........XXXXXXXXXXXXXXXXXXXXXXXXXXXXXXXXXXXXXXXXXXXXXXXXXXXXXXXXXXXXXXXXXXXXXXXXXXXXXXXXXXXXXXXXXXXXXXXX........          ",
"        ........XXXXXXXXXXXXXXXXXXXXXXXXXXXXXXXXXXXXXXXXXXXXXXXXXXXXXXXXXXXXXXXXXXXXXXXXXXXXXXXXXXXXXXXXXXXXXXXX........          ",
"        ........XXXXXXXXXXXXXXXXXXXXXXXXXXXXXXXXXXXXXXXXXXXXXXXXXXXXXXXXXXXXXXXXXXXXXXXXXXXXXXXXXXXXXXXXXXXXXXXX........          ",
"        ........XXXXXXXXXXXXXXXXXXXXXXXXXXXXXXXXXXXXXXXXXXXXXXXXXXXXXXXXXXXXXXXXXXXXXXXXXXXXXXXXXXXXXXXXXXXXXXXX........          ",
"        ........XXXXXXXXXXXXXXXXXXXXXXXXXXXXXXXXXXXXXXXX........XXXXXXXXXXXXXXXXXXXXXXXXXXXXXXXXXXXXXXXXXXXXXXXX........          ",
"        ........XXXXXXXXXXXXXXXXXXXXXXXXXXXXXXXXXXXXXXXX........XXXXXXXXXXXXXXXXXXXXXXXXXXXXXXXXXXXXXXXXXXXXXXXX........          ",
"        ........XXXXXXXXXXXXXXXXXXXXXXXXXXXXXXXXXXXXXXXX........XXXXXXXXXXXXXXXXXXXXXXXXXXXXXXXXXXXXXXXXXXXXXXXX........          ",
"        ........XXXXXXXXXXXXXXXXXXXXXXXXXXXXXXXXXXXXXXXX........XXXXXXXXXXXXXXXXXXXXXXXXXXXXXXXXXXXXXXXXXXXXXXXX........          ",
"        ........XXXXXXXXXXXXXXXXXXXXXXXXXXXXXXXXXXXXXXXX........XXXXXXXXXXXXXXXXXXXXXXXXXXXXXXXXXXXXXXXXXXXXXXXX........          ",
"        ........XXXXXXXXXXXXXXXXXXXXXXXXXXXXXXXXXXXXXXXX........XXXXXXXXXXXXXXXXXXXXXXXXXXXXXXXXXXXXXXXXXXXXXXXX........          ",
"        ........XXXXXXXXXXXXXXXXXXXXXXXXXXXXXXXXXXXXXXXX........XXXXXXXXXXXXXXXXXXXXXXXXXXXXXXXXXXXXXXXXXXXXXXXX........          ",
"        ........XXXXXXXXXXXXXXXXXXXXXXXXXXXXXXXXXXXXXXXX........XXXXXXXXXXXXXXXXXXXXXXXXXXXXXXXXXXXXXXXXXXXXXXXX........          ",
"                ........XXXXXXXXXXXXXXXXXXXXXXXXXXXXXXXXXXXXXXXXXXXXXXXXXXXXXXXXXXXXXXXXXXXXXXXXXXXXXXXX........                  ",
"                ........XXXXXXXXXXXXXXXXXXXXXXXXXXXXXXXXXXXXXXXXXXXXXXXXXXXXXXXXXXXXXXXXXXXXXXXXXXXXXXXX........                  ",
"                ........XXXXXXXXXXXXXXXXXXXXXXXXXXXXXXXXXXXXXXXXXXXXXXXXXXXXXXXXXXXXXXXXXXXXXXXXXXXXXXXX........                  ",
"                ........XXXXXXXXXXXXXXXXXXXXXXXXXXXXXXXXXXXXXXXXXXXXXXXXXXXXXXXXXXXXXXXXXXXXXXXXXXXXXXXX........                  ",
"                ........XXXXXXXXXXXXXXXXXXXXXXXXXXXXXXXXXXXXXXXXXXXXXXXXXXXXXXXXXXXXXXXXXXXXXXXXXXXXXXXX........                  ",
"                ........XXXXXXXXXXXXXXXXXXXXXXXXXXXXXXXXXXXXXXXXXXXXXXXXXXXXXXXXXXXXXXXXXXXXXXXXXXXXXXXX........                  ",
"                ........XXXXXXXXXXXXXXXXXXXXXXXXXXXXXXXXXXXXXXXXXXXXXXXXXXXXXXXXXXXXXXXXXXXXXXXXXXXXXXXX........                  ",
"                ........XXXXXXXXXXXXXXXXXXXXXXXXXXXXXXXXXXXXXXXXXXXXXXXXXXXXXXXXXXXXXXXXXXXXXXXXXXXXXXXX........                  ",
"                        ................................................................................                          ",
"                        ................................................................................                          ",
"                        ................................................................................                          ",
"                        ................................................................................                          ",
"                        ................................................................................                          ",
"                        ................................................................................                          ",
"                        ................................................................................                          ",
"                        ................................................................................                          ",
"                                                ........oooooooo........                                                          ",
"                                                ........oooooooo........                                                          ",
"                                                ........oooooooo........                                                          ",
"                                                ........oooooooo........                                                          ",
"                                                ........oooooooo........                                                          ",
"                                                ........oooooooo........                                                          ",
"                                                ........oooooooo........                                                          ",
"                                                ........oooooooo........                                                          ",
"                                        ........oooooooo........                                                                  ",
"                                        ........oooooooo........                                                                  ",
"                                        ........oooooooo........                                                                  ",
"                                        ........oooooooo........                                                                  ",
"                                        ........oooooooo........                                                                  ",
"                                        ........oooooooo........                                                                  ",
"                                        ........oooooooo........                                                                  ",
"                                        ........oooooooo........                                                                  ",
"                                                ........                                                                          ",
"                                                ........                                                                          ",
"                                                ........                                                                          ",
"                                                ........                                                                          ",
"                                                ........                                                                          ",
"                                                ........                                                                          ",
"                                                ........                                                                          ",
"                                                ........                                                                          "
};
