/* XPM */
static char *result[] = {
/* columns rows colors chars-per-pixel */
"30 30 7 1 ",
"  c #3C3C3C",
". c #017800",
"X c #156414",
"o c #457044",
"O c #3BB838",
"+ c #58D854",
"@ c None",
/* pixels */
"@@@@@@@@@        @@@@@@@@@@@@@",
"@@@@@@@@@        @@@@@@@@@@@@@",
"@@@@@@   ++++++..   @@@@@@@@@@",
"@@@@@@   ++++++..   @@@@@@@@@@",
"@@@@ o+++++..         @@@@@@@@",
"@@@@ o+++++..         @@@@@@@@",
"@@  +++..    ..+++++..  @@@@@@",
"@@  +++..    ..+++++..  @@@@@@",
"@@  .X   ..+++++++++++  @@@@@@",
"@@  .X   ..+++++++++++  @@@@@@",
"@@@@  @  +++++++++++++++  @@@@",
"@@@@ @@  ++OO++OO+++++++  @@@@",
"@@@@@@@  ++..++..+++++++  @@@@",
"@@@@@@ ++++  ++  +++++++++  @@",
"@@@@@@ ++++  ++  +++++++++  @@",
"@@@@ o+++++  ++  +++++++++  @@",
"@@@@ o+++++  ++  +++++++++  @@",
"@@  ++++++++++++++++++++++  @@",
"@@  ++++++++++++++++++++++  @@",
"@@  +++++++++  +++++++++++  @@",
"@@  +++++++++  +++++++++++  @@",
"@@@@ o++++++++++++++++++  @@@@",
"@@@@ o++++++++++++++++++  @@@@",
"@@@@@@                  @@@@@@",
"@@@@@@@@@@@  XX  @@@@@@@@@@@@@",
"@@@@@@@@@@@  ..  @@@@@@@@@@@@@",
"@@@@@@@@@  ..  @@@@@@@@@@@@@@@",
"@@@@@@@@@  ..  @@@@@@@@@@@@@@@",
"@@@@@@@@@@@  @@@@@@@@@@@@@@@@@",
"@@@@@@@@@@@  @@@@@@@@@@@@@@@@@"
};
