/* XPM */
static char *result[] = {
/* columns rows colors chars-per-pixel */
"130 130 4 1 ",
"  c #3C3C3C",
". c #017800",
"X c #58D854",
"o c None",
/* pixels */
"oooooooooooooooooooooooooooooooooooooooooooooooooooooooooooooooooooooooooooooooooooooooooooooooooooooooooooooooooooooooooooooooooo",
"oooooooooooooooooooooooooooooooooooooooooooooooooooooooooooooooooooooooooooooooooooooooooooooooooooooooooooooooooooooooooooooooooo",
"oooooooooooooooooooooooooooooooooooooooo                                oooooooooooooooooooooooooooooooooooooooooooooooooooooooooo",
"oooooooooooooooooooooooooooooooooooooooo                                oooooooooooooooooooooooooooooooooooooooooooooooooooooooooo",
"oooooooooooooooooooooooooooooooooooooooo                                oooooooooooooooooooooooooooooooooooooooooooooooooooooooooo",
"oooooooooooooooooooooooooooooooooooooooo                                oooooooooooooooooooooooooooooooooooooooooooooooooooooooooo",
"oooooooooooooooooooooooooooooooooooooooo                                oooooooooooooooooooooooooooooooooooooooooooooooooooooooooo",
"oooooooooooooooooooooooooooooooooooooooo                                oooooooooooooooooooooooooooooooooooooooooooooooooooooooooo",
"oooooooooooooooooooooooooooooooooooooooo                                oooooooooooooooooooooooooooooooooooooooooooooooooooooooooo",
"oooooooooooooooooooooooooooooooooooooooo                                oooooooooooooooooooooooooooooooooooooooooooooooooooooooooo",
"oooooooooooooooooooooooo                XXXXXXXXXXXXXXXXXXXXXXXX........                oooooooooooooooooooooooooooooooooooooooooo",
"oooooooooooooooooooooooo                XXXXXXXXXXXXXXXXXXXXXXXX........                oooooooooooooooooooooooooooooooooooooooooo",
"oooooooooooooooooooooooo                XXXXXXXXXXXXXXXXXXXXXXXX........                oooooooooooooooooooooooooooooooooooooooooo",
"oooooooooooooooooooooooo                XXXXXXXXXXXXXXXXXXXXXXXX........                oooooooooooooooooooooooooooooooooooooooooo",
"oooooooooooooooooooooooo                XXXXXXXXXXXXXXXXXXXXXXXX........                oooooooooooooooooooooooooooooooooooooooooo",
"oooooooooooooooooooooooo                XXXXXXXXXXXXXXXXXXXXXXXX........                oooooooooooooooooooooooooooooooooooooooooo",
"oooooooooooooooooooooooo                XXXXXXXXXXXXXXXXXXXXXXXX........                oooooooooooooooooooooooooooooooooooooooooo",
"oooooooooooooooooooooooo                XXXXXXXXXXXXXXXXXXXXXXXX........                oooooooooooooooooooooooooooooooooooooooooo",
"oooooooooooooooo        XXXXXXXXXXXXXXXXXXXXXXXX........                                        oooooooooooooooooooooooooooooooooo",
"oooooooooooooooo        XXXXXXXXXXXXXXXXXXXXXXXX........                                        oooooooooooooooooooooooooooooooooo",
"oooooooooooooooo        XXXXXXXXXXXXXXXXXXXXXXXX........                                        oooooooooooooooooooooooooooooooooo",
"oooooooooooooooo        XXXXXXXXXXXXXXXXXXXXXXXX........                                        oooooooooooooooooooooooooooooooooo",
"oooooooooooooooo        XXXXXXXXXXXXXXXXXXXXXXXX........                                        oooooooooooooooooooooooooooooooooo",
"oooooooooooooooo        XXXXXXXXXXXXXXXXXXXXXXXX........                                        oooooooooooooooooooooooooooooooooo",
"oooooooooooooooo        XXXXXXXXXXXXXXXXXXXXXXXX........                                        oooooooooooooooooooooooooooooooooo",
"oooooooooooooooo        XXXXXXXXXXXXXXXXXXXXXXXX........                                        oooooooooooooooooooooooooooooooooo",
"oooooooo        XXXXXXXXXXXXXXXX........                ........XXXXXXXXXXXXXXXXXXXXXXXX........        oooooooooooooooooooooooooo",
"oooooooo        XXXXXXXXXXXXXXXX........                ........XXXXXXXXXXXXXXXXXXXXXXXX........        oooooooooooooooooooooooooo",
"oooooooo        XXXXXXXXXXXXXXXX........                ........XXXXXXXXXXXXXXXXXXXXXXXX........        oooooooooooooooooooooooooo",
"oooooooo        XXXXXXXXXXXXXXXX........                ........XXXXXXXXXXXXXXXXXXXXXXXX........        oooooooooooooooooooooooooo",
"oooooooo        XXXXXXXXXXXXXXXX........                ........XXXXXXXXXXXXXXXXXXXXXXXX........        oooooooooooooooooooooooooo",
"oooooooo        XXXXXXXXXXXXXXXX........                ........XXXXXXXXXXXXXXXXXXXXXXXX........        oooooooooooooooooooooooooo",
"oooooooo        XXXXXXXXXXXXXXXX........                ........XXXXXXXXXXXXXXXXXXXXXXXX........        oooooooooooooooooooooooooo",
"oooooooo        XXXXXXXXXXXXXXXX........                ........XXXXXXXXXXXXXXXXXXXXXXXX........        oooooooooooooooooooooooooo",
"oooooooo        ........                ........XXXXXXXXXXXXXXXXXXXXXXXXXXXXXXXXXXXXXXXXXXXXXXXX        oooooooooooooooooooooooooo",
"oooooooo        ........                ........XXXXXXXXXXXXXXXXXXXXXXXXXXXXXXXXXXXXXXXXXXXXXXXX        oooooooooooooooooooooooooo",
"oooooooo        ........                ........XXXXXXXXXXXXXXXXXXXXXXXXXXXXXXXXXXXXXXXXXXXXXXXX        oooooooooooooooooooooooooo",
"oooooooo        ........                ........XXXXXXXXXXXXXXXXXXXXXXXXXXXXXXXXXXXXXXXXXXXXXXXX        oooooooooooooooooooooooooo",
"oooooooo        ........                ........XXXXXXXXXXXXXXXXXXXXXXXXXXXXXXXXXXXXXXXXXXXXXXXX        oooooooooooooooooooooooooo",
"oooooooo        ........                ........XXXXXXXXXXXXXXXXXXXXXXXXXXXXXXXXXXXXXXXXXXXXXXXX        oooooooooooooooooooooooooo",
"oooooooo        ........                ........XXXXXXXXXXXXXXXXXXXXXXXXXXXXXXXXXXXXXXXXXXXXXXXX        oooooooooooooooooooooooooo",
"oooooooo        ........                ........XXXXXXXXXXXXXXXXXXXXXXXXXXXXXXXXXXXXXXXXXXXXXXXX        oooooooooooooooooooooooooo",
"oooooooooooooooo        oooooooo        XXXXXXXXXXXXXXXXXXXXXXXXXXXXXXXXXXXXXXXXXXXXXXXXXXXXXXXXXXXXXXXX        oooooooooooooooooo",
"oooooooooooooooo        oooooooo        XXXXXXXXXXXXXXXXXXXXXXXXXXXXXXXXXXXXXXXXXXXXXXXXXXXXXXXXXXXXXXXX        oooooooooooooooooo",
"oooooooooooooooo        oooooooo        XXXXXXXXXXXXXXXXXXXXXXXXXXXXXXXXXXXXXXXXXXXXXXXXXXXXXXXXXXXXXXXX        oooooooooooooooooo",
"oooooooooooooooo        oooooooo        XXXXXXXXXXXXXXXXXXXXXXXXXXXXXXXXXXXXXXXXXXXXXXXXXXXXXXXXXXXXXXXX        oooooooooooooooooo",
"oooooooooooooooo        oooooooo        XXXXXXXXXXXXXXXXXXXXXXXXXXXXXXXXXXXXXXXXXXXXXXXXXXXXXXXXXXXXXXXX        oooooooooooooooooo",
"oooooooooooooooo        oooooooo        XXXXXXXXXXXXXXXXXXXXXXXXXXXXXXXXXXXXXXXXXXXXXXXXXXXXXXXXXXXXXXXX        oooooooooooooooooo",
"oooooooooooooooo        oooooooo        XXXXXXXXXXXXXXXXXXXXXXXXXXXXXXXXXXXXXXXXXXXXXXXXXXXXXXXXXXXXXXXX        oooooooooooooooooo",
"oooooooooooooooo        oooooooo        XXXXXXXXXXXXXXXXXXXXXXXXXXXXXXXXXXXXXXXXXXXXXXXXXXXXXXXXXXXXXXXX        oooooooooooooooooo",
"oooooooooooooooooooooooooooooooo        XXXXXXXX........XXXXXXXX........XXXXXXXXXXXXXXXXXXXXXXXXXXXXXXXX        oooooooooooooooooo",
"oooooooooooooooooooooooooooooooo        XXXXXXXX........XXXXXXXX........XXXXXXXXXXXXXXXXXXXXXXXXXXXXXXXX        oooooooooooooooooo",
"oooooooooooooooooooooooooooooooo        XXXXXXXX........XXXXXXXX........XXXXXXXXXXXXXXXXXXXXXXXXXXXXXXXX        oooooooooooooooooo",
"oooooooooooooooooooooooooooooooo        XXXXXXXX........XXXXXXXX........XXXXXXXXXXXXXXXXXXXXXXXXXXXXXXXX        oooooooooooooooooo",
"oooooooooooooooooooooooooooooooo        XXXXXXXX........XXXXXXXX........XXXXXXXXXXXXXXXXXXXXXXXXXXXXXXXX        oooooooooooooooooo",
"oooooooooooooooooooooooooooooooo        XXXXXXXX........XXXXXXXX........XXXXXXXXXXXXXXXXXXXXXXXXXXXXXXXX        oooooooooooooooooo",
"oooooooooooooooooooooooooooooooo        XXXXXXXX........XXXXXXXX........XXXXXXXXXXXXXXXXXXXXXXXXXXXXXXXX        oooooooooooooooooo",
"oooooooooooooooooooooooooooooooo        XXXXXXXX........XXXXXXXX........XXXXXXXXXXXXXXXXXXXXXXXXXXXXXXXX        oooooooooooooooooo",
"oooooooooooooooooooooooo        XXXXXXXXXXXXXXXX        XXXXXXXX        XXXXXXXXXXXXXXXXXXXXXXXXXXXXXXXXXXXXXXXX        oooooooooo",
"oooooooooooooooooooooooo        XXXXXXXXXXXXXXXX        XXXXXXXX        XXXXXXXXXXXXXXXXXXXXXXXXXXXXXXXXXXXXXXXX        oooooooooo",
"oooooooooooooooooooooooo        XXXXXXXXXXXXXXXX        XXXXXXXX        XXXXXXXXXXXXXXXXXXXXXXXXXXXXXXXXXXXXXXXX        oooooooooo",
"oooooooooooooooooooooooo        XXXXXXXXXXXXXXXX        XXXXXXXX        XXXXXXXXXXXXXXXXXXXXXXXXXXXXXXXXXXXXXXXX        oooooooooo",
"oooooooooooooooooooooooo        XXXXXXXXXXXXXXXX        XXXXXXXX        XXXXXXXXXXXXXXXXXXXXXXXXXXXXXXXXXXXXXXXX        oooooooooo",
"oooooooooooooooooooooooo        XXXXXXXXXXXXXXXX        XXXXXXXX        XXXXXXXXXXXXXXXXXXXXXXXXXXXXXXXXXXXXXXXX        oooooooooo",
"oooooooooooooooooooooooo        XXXXXXXXXXXXXXXX        XXXXXXXX        XXXXXXXXXXXXXXXXXXXXXXXXXXXXXXXXXXXXXXXX        oooooooooo",
"oooooooooooooooooooooooo        XXXXXXXXXXXXXXXX        XXXXXXXX        XXXXXXXXXXXXXXXXXXXXXXXXXXXXXXXXXXXXXXXX        oooooooooo",
"oooooooooooooooo        XXXXXXXXXXXXXXXXXXXXXXXX        XXXXXXXX        XXXXXXXXXXXXXXXXXXXXXXXXXXXXXXXXXXXXXXXX        oooooooooo",
"oooooooooooooooo        XXXXXXXXXXXXXXXXXXXXXXXX        XXXXXXXX        XXXXXXXXXXXXXXXXXXXXXXXXXXXXXXXXXXXXXXXX        oooooooooo",
"oooooooooooooooo        XXXXXXXXXXXXXXXXXXXXXXXX        XXXXXXXX        XXXXXXXXXXXXXXXXXXXXXXXXXXXXXXXXXXXXXXXX        oooooooooo",
"oooooooooooooooo        XXXXXXXXXXXXXXXXXXXXXXXX        XXXXXXXX        XXXXXXXXXXXXXXXXXXXXXXXXXXXXXXXXXXXXXXXX        oooooooooo",
"oooooooooooooooo        XXXXXXXXXXXXXXXXXXXXXXXX        XXXXXXXX        XXXXXXXXXXXXXXXXXXXXXXXXXXXXXXXXXXXXXXXX        oooooooooo",
"oooooooooooooooo        XXXXXXXXXXXXXXXXXXXXXXXX        XXXXXXXX        XXXXXXXXXXXXXXXXXXXXXXXXXXXXXXXXXXXXXXXX        oooooooooo",
"oooooooooooooooo        XXXXXXXXXXXXXXXXXXXXXXXX        XXXXXXXX        XXXXXXXXXXXXXXXXXXXXXXXXXXXXXXXXXXXXXXXX        oooooooooo",
"oooooooooooooooo        XXXXXXXXXXXXXXXXXXXXXXXX        XXXXXXXX        XXXXXXXXXXXXXXXXXXXXXXXXXXXXXXXXXXXXXXXX        oooooooooo",
"oooooooo        XXXXXXXXXXXXXXXXXXXXXXXXXXXXXXXXXXXXXXXXXXXXXXXXXXXXXXXXXXXXXXXXXXXXXXXXXXXXXXXXXXXXXXXXXXXXXXXX        oooooooooo",
"oooooooo        XXXXXXXXXXXXXXXXXXXXXXXXXXXXXXXXXXXXXXXXXXXXXXXXXXXXXXXXXXXXXXXXXXXXXXXXXXXXXXXXXXXXXXXXXXXXXXXX        oooooooooo",
"oooooooo        XXXXXXXXXXXXXXXXXXXXXXXXXXXXXXXXXXXXXXXXXXXXXXXXXXXXXXXXXXXXXXXXXXXXXXXXXXXXXXXXXXXXXXXXXXXXXXXX        oooooooooo",
"oooooooo        XXXXXXXXXXXXXXXXXXXXXXXXXXXXXXXXXXXXXXXXXXXXXXXXXXXXXXXXXXXXXXXXXXXXXXXXXXXXXXXXXXXXXXXXXXXXXXXX        oooooooooo",
"oooooooo        XXXXXXXXXXXXXXXXXXXXXXXXXXXXXXXXXXXXXXXXXXXXXXXXXXXXXXXXXXXXXXXXXXXXXXXXXXXXXXXXXXXXXXXXXXXXXXXX        oooooooooo",
"oooooooo        XXXXXXXXXXXXXXXXXXXXXXXXXXXXXXXXXXXXXXXXXXXXXXXXXXXXXXXXXXXXXXXXXXXXXXXXXXXXXXXXXXXXXXXXXXXXXXXX        oooooooooo",
"oooooooo        XXXXXXXXXXXXXXXXXXXXXXXXXXXXXXXXXXXXXXXXXXXXXXXXXXXXXXXXXXXXXXXXXXXXXXXXXXXXXXXXXXXXXXXXXXXXXXXX        oooooooooo",
"oooooooo        XXXXXXXXXXXXXXXXXXXXXXXXXXXXXXXXXXXXXXXXXXXXXXXXXXXXXXXXXXXXXXXXXXXXXXXXXXXXXXXXXXXXXXXXXXXXXXXX        oooooooooo",
"oooooooo        XXXXXXXXXXXXXXXXXXXXXXXXXXXXXXXXXXXXXXXX        XXXXXXXXXXXXXXXXXXXXXXXXXXXXXXXXXXXXXXXXXXXXXXXX        oooooooooo",
"oooooooo        XXXXXXXXXXXXXXXXXXXXXXXXXXXXXXXXXXXXXXXX        XXXXXXXXXXXXXXXXXXXXXXXXXXXXXXXXXXXXXXXXXXXXXXXX        oooooooooo",
"oooooooo        XXXXXXXXXXXXXXXXXXXXXXXXXXXXXXXXXXXXXXXX        XXXXXXXXXXXXXXXXXXXXXXXXXXXXXXXXXXXXXXXXXXXXXXXX        oooooooooo",
"oooooooo        XXXXXXXXXXXXXXXXXXXXXXXXXXXXXXXXXXXXXXXX        XXXXXXXXXXXXXXXXXXXXXXXXXXXXXXXXXXXXXXXXXXXXXXXX        oooooooooo",
"oooooooo        XXXXXXXXXXXXXXXXXXXXXXXXXXXXXXXXXXXXXXXX        XXXXXXXXXXXXXXXXXXXXXXXXXXXXXXXXXXXXXXXXXXXXXXXX        oooooooooo",
"oooooooo        XXXXXXXXXXXXXXXXXXXXXXXXXXXXXXXXXXXXXXXX        XXXXXXXXXXXXXXXXXXXXXXXXXXXXXXXXXXXXXXXXXXXXXXXX        oooooooooo",
"oooooooo        XXXXXXXXXXXXXXXXXXXXXXXXXXXXXXXXXXXXXXXX        XXXXXXXXXXXXXXXXXXXXXXXXXXXXXXXXXXXXXXXXXXXXXXXX        oooooooooo",
"oooooooo        XXXXXXXXXXXXXXXXXXXXXXXXXXXXXXXXXXXXXXXX        XXXXXXXXXXXXXXXXXXXXXXXXXXXXXXXXXXXXXXXXXXXXXXXX        oooooooooo",
"oooooooooooooooo        XXXXXXXXXXXXXXXXXXXXXXXXXXXXXXXXXXXXXXXXXXXXXXXXXXXXXXXXXXXXXXXXXXXXXXXXXXXXXXXX        oooooooooooooooooo",
"oooooooooooooooo        XXXXXXXXXXXXXXXXXXXXXXXXXXXXXXXXXXXXXXXXXXXXXXXXXXXXXXXXXXXXXXXXXXXXXXXXXXXXXXXX        oooooooooooooooooo",
"oooooooooooooooo        XXXXXXXXXXXXXXXXXXXXXXXXXXXXXXXXXXXXXXXXXXXXXXXXXXXXXXXXXXXXXXXXXXXXXXXXXXXXXXXX        oooooooooooooooooo",
"oooooooooooooooo        XXXXXXXXXXXXXXXXXXXXXXXXXXXXXXXXXXXXXXXXXXXXXXXXXXXXXXXXXXXXXXXXXXXXXXXXXXXXXXXX        oooooooooooooooooo",
"oooooooooooooooo        XXXXXXXXXXXXXXXXXXXXXXXXXXXXXXXXXXXXXXXXXXXXXXXXXXXXXXXXXXXXXXXXXXXXXXXXXXXXXXXX        oooooooooooooooooo",
"oooooooooooooooo        XXXXXXXXXXXXXXXXXXXXXXXXXXXXXXXXXXXXXXXXXXXXXXXXXXXXXXXXXXXXXXXXXXXXXXXXXXXXXXXX        oooooooooooooooooo",
"oooooooooooooooo        XXXXXXXXXXXXXXXXXXXXXXXXXXXXXXXXXXXXXXXXXXXXXXXXXXXXXXXXXXXXXXXXXXXXXXXXXXXXXXXX        oooooooooooooooooo",
"oooooooooooooooo        XXXXXXXXXXXXXXXXXXXXXXXXXXXXXXXXXXXXXXXXXXXXXXXXXXXXXXXXXXXXXXXXXXXXXXXXXXXXXXXX        oooooooooooooooooo",
"oooooooooooooooooooooooo                                                                                oooooooooooooooooooooooooo",
"oooooooooooooooooooooooo                                                                                oooooooooooooooooooooooooo",
"oooooooooooooooooooooooo                                                                                oooooooooooooooooooooooooo",
"oooooooooooooooooooooooo                                                                                oooooooooooooooooooooooooo",
"oooooooooooooooooooooooo                                                                                oooooooooooooooooooooooooo",
"oooooooooooooooooooooooo                                                                                oooooooooooooooooooooooooo",
"oooooooooooooooooooooooo                                                                                oooooooooooooooooooooooooo",
"oooooooooooooooooooooooo                                                                                oooooooooooooooooooooooooo",
"oooooooooooooooooooooooooooooooooooooooooooooooo        ........        oooooooooooooooooooooooooooooooooooooooooooooooooooooooooo",
"oooooooooooooooooooooooooooooooooooooooooooooooo        ........        oooooooooooooooooooooooooooooooooooooooooooooooooooooooooo",
"oooooooooooooooooooooooooooooooooooooooooooooooo        ........        oooooooooooooooooooooooooooooooooooooooooooooooooooooooooo",
"oooooooooooooooooooooooooooooooooooooooooooooooo        ........        oooooooooooooooooooooooooooooooooooooooooooooooooooooooooo",
"oooooooooooooooooooooooooooooooooooooooooooooooo        ........        oooooooooooooooooooooooooooooooooooooooooooooooooooooooooo",
"oooooooooooooooooooooooooooooooooooooooooooooooo        ........        oooooooooooooooooooooooooooooooooooooooooooooooooooooooooo",
"oooooooooooooooooooooooooooooooooooooooooooooooo        ........        oooooooooooooooooooooooooooooooooooooooooooooooooooooooooo",
"oooooooooooooooooooooooooooooooooooooooooooooooo        ........        oooooooooooooooooooooooooooooooooooooooooooooooooooooooooo",
"oooooooooooooooooooooooooooooooooooooooo        ........        oooooooooooooooooooooooooooooooooooooooooooooooooooooooooooooooooo",
"oooooooooooooooooooooooooooooooooooooooo        ........        oooooooooooooooooooooooooooooooooooooooooooooooooooooooooooooooooo",
"oooooooooooooooooooooooooooooooooooooooo        ........        oooooooooooooooooooooooooooooooooooooooooooooooooooooooooooooooooo",
"oooooooooooooooooooooooooooooooooooooooo        ........        oooooooooooooooooooooooooooooooooooooooooooooooooooooooooooooooooo",
"oooooooooooooooooooooooooooooooooooooooo        ........        oooooooooooooooooooooooooooooooooooooooooooooooooooooooooooooooooo",
"oooooooooooooooooooooooooooooooooooooooo        ........        oooooooooooooooooooooooooooooooooooooooooooooooooooooooooooooooooo",
"oooooooooooooooooooooooooooooooooooooooo        ........        oooooooooooooooooooooooooooooooooooooooooooooooooooooooooooooooooo",
"oooooooooooooooooooooooooooooooooooooooo        ........        oooooooooooooooooooooooooooooooooooooooooooooooooooooooooooooooooo",
"oooooooooooooooooooooooooooooooooooooooooooooooo        oooooooooooooooooooooooooooooooooooooooooooooooooooooooooooooooooooooooooo",
"oooooooooooooooooooooooooooooooooooooooooooooooo        oooooooooooooooooooooooooooooooooooooooooooooooooooooooooooooooooooooooooo",
"oooooooooooooooooooooooooooooooooooooooooooooooo        oooooooooooooooooooooooooooooooooooooooooooooooooooooooooooooooooooooooooo",
"oooooooooooooooooooooooooooooooooooooooooooooooo        oooooooooooooooooooooooooooooooooooooooooooooooooooooooooooooooooooooooooo",
"oooooooooooooooooooooooooooooooooooooooooooooooo        oooooooooooooooooooooooooooooooooooooooooooooooooooooooooooooooooooooooooo",
"oooooooooooooooooooooooooooooooooooooooooooooooo        oooooooooooooooooooooooooooooooooooooooooooooooooooooooooooooooooooooooooo",
"oooooooooooooooooooooooooooooooooooooooooooooooo        oooooooooooooooooooooooooooooooooooooooooooooooooooooooooooooooooooooooooo",
"oooooooooooooooooooooooooooooooooooooooooooooooo        oooooooooooooooooooooooooooooooooooooooooooooooooooooooooooooooooooooooooo"
};
