/* XPM */
static char *b10f357b2726465bb53989f38acaf0eecq7lcS3JoEu87siZ[] = {
/* columns rows colors chars-per-pixel */
"62 62 6 1 ",
"  c #305753",
". c #3B7D4F",
"X c #3A7850",
"o c #40834D",
"O c #5EA542",
"+ c #63AB40",
/* pixels */
"++++....++++++++++++++++++++++++++++++++++++++++++++++++++++++",
"++++....++++++++++++++++++++++++++++++++++++++++++++++++++++++",
"++++....++++++++++++++++++++++++++++++++++++++++++++++++++++++",
"++++....++++++++++++++++++++++++++++++++++++++++++++++++++++++",
"+++++++++++++++++++++++++++++++++++++++++++....+++++++++++++++",
"+++++++++++++++++++++++++++++++++++++++++++....+++++++++++++++",
"+++++++++++++++++++++++++++++++++++++++++++....+++++++++++++++",
"+++++++++++++++++++++++++++++++++++++++++++....+++++++++++++++",
"++++++++++++...+++++++++++++++++++++++++++++++++++++++++++++++",
"++++++++++++...+++++++++++++++++++++++++++++++++++++++++++++++",
"++++++++++++...+++++++++++++++++++++++++++++++++++++++++++++++",
"++++++++++++...+++++++++++++++++++++++++++++++++++++++++++++++",
"+++++++++++++++....O+++....+++++++++++++++++++++++++++++++++++",
"+++++++++++++++....O+++....+++++++++++++++++++++++++++++++++++",
"+++++++++++++++....O+++....+++++++++++++++++++++++++++++++++++",
"++++....++++...    X...+++++++++++++++++++++++++++++++++++++++",
"++++....++++...    X...+++++++++++++++++++++++++++++++++++++++",
"++++....++++...    X...+++++++++++++++++++++++++++++++++++++++",
"++++....++++...    X...+++++++++++++++++++++++++++++++++++++++",
"++++++++....           ........+++++++++++++++++++++++++++++++",
"++++++++....           ........+++++++++++++++++++++++++++++++",
"++++++++....           ........+++++++++++++++++++++++++++++++",
"++++++++....           ........+++++++++++++++++++++++++++++++",
"++++++++++++++++++++++++++++++++++++++++++++++++++++++++++++++",
"++++++++++++++++++++++++++++++++++++++++++++++++++++++++++++++",
"++++++++++++++++++++++++++++++++++++++++++++++++++++++++++++++",
"++++++++++++++++++++++++++++++++++++++++++++++++++++++++++++++",
"++++++++++++++++++++++++++++++++++++++++++++++++++++++....++++",
"++++++++++++++++++++++++++++++++++++++++++++++++++++++....++++",
"++++++++++++++++++++++++++++++++++++++++++++++++++++++....++++",
"++++++++++++++++++++++++++++++++++++++++++++++++++++++....++++",
"++++++++++++++++++++++++++++++++++++++++++++++++++++++++++++++",
"++++++++++++++++++++++++++++++++++++++++++++++++++++++++++++++",
"++++++++++++++++++++++++++++++++++++++++++++++++++++++++++++++",
"++++++++++++++++++++++++++++++++++++++++++++++++++++++++++++++",
"+++++++++++++++++++o...+++++++++++++++++++++++++++++++++++++++",
"+++++++++++++++++++o...+++++++++++++++++++++++++++++++++++++++",
"+++++++++++++++++++o...+++++++++++++++++++++++++++++++++++++++",
"+++++++++++++++++++o...+++++++++++++++++++++++++++++++++++++++",
"....++++++++++++++++++++++++++++++++++++++++++++++++++++++++++",
"....++++++++++++++++++++++++++++++++++++++++++++++++++++++++++",
"....++++++++++++++++++++++++++++++++++++++++++++++++++++++++++",
"....++++++++++++++++++++++++++++++++++++++++++++++++++++++++++",
"+++++++++++++++++++++++++++++++++++++++....++++++++...++++....",
"+++++++++++++++++++++++++++++++++++++++....++++++++...++++....",
"+++++++++++++++++++++++++++++++++++++++....++++++++...++++....",
"+++++++++++++++++++++++++++++++++++++++....++++++++...++++....",
"....++++....++++++++++++++++++++++++++++++++++++++++++....    ",
"....++++....++++++++++++++++++++++++++++++++++++++++++....    ",
"....++++....++++++++++++++++++++++++++++++++++++++++++....    ",
"    ....+++++++++++++++++++++++++++++++++++++++.......        ",
"    ....+++++++++++++++++++++++++++++++++++++++.......        ",
"    ....+++++++++++++++++++++++++++++++++++++++.......        ",
"    ....+++++++++++++++++++++++++++++++++++++++.......        ",
"+++++++++++++++++++++++....+++++++++++++++++++++++++++++++++++",
"+++++++++++++++++++++++....+++++++++++++++++++++++++++++++++++",
"+++++++++++++++++++++++....+++++++++++++++++++++++++++++++++++",
"+++++++++++++++++++++++....+++++++++++++++++++++++++++++++++++",
"++++++++++++++++++++++++++++++++++++++++++++++++++++++++++++++",
"++++++++++++++++++++++++++++++++++++++++++++++++++++++++++++++",
"++++++++++++++++++++++++++++++++++++++++++++++++++++++++++++++",
"++++++++++++++++++++++++++++++++++++++++++++++++++++++++++++++"
};
