/* XPM */
static char *result[] = {
/* columns rows colors chars-per-pixel */
"50 50 23 1 ",
"  c black",
". c #242324",
"X c #302F30",
"o c #3C3B3C",
"O c #176C0E",
"+ c #0E7803",
"@ c #20601A",
"# c #2A5325",
"$ c #334731",
"% c #415A41",
"& c #467344",
"* c #477A45",
"= c #1D8B13",
"- c #2B9E23",
"; c #3AB233",
": c #4C994A",
"> c #4EA64C",
", c #50B24D",
"< c #52B94E",
"1 c #53BF4F",
"2 c #48C543",
"3 c #55CB51",
"4 c #57D853",
/* pixels */
"                                                  ",
"               Xoooooooooooo                      ",
"               Xoooooooooooo                      ",
"               Xoooooooooooo                      ",
"         oooooo<444444442+++oooooo                ",
"         oooooo<444444442+++oooooo                ",
"         oooooo<444444442+++oooooo                ",
"      ooo444444444-++@ooooooooooooooo             ",
"      ooo444444444-++@ooooooooooooooo             ",
"      ooo444444444-++@ooooooooooooooo             ",
"   ooo444444+++$ooooo#++=444444444+++ooo          ",
"   ooo444444+++$ooooo#++=444444444+++ooo          ",
"   ooo444444+++$ooooo#++=444444444+++ooo          ",
"   ooo+++ooooooO++;444444444444444444ooo          ",
"   ooo+++ooooooO++;444444444444444444ooo          ",
"   ooo+++ooooooO++;444444444444444444ooo          ",
"      ooo   ooo<444444444444444444444444ooo       ",
"      ooo   ooo<444444444444444444444444ooo       ",
"      ooo   ooo<444444444444444444444444ooo       ",
"            ooo<44-++-442+++444444444444ooo       ",
"            ooo<44-++-442+++444444444444ooo       ",
"            ooo<44-++-442+++444444444444ooo       ",
"         ooo444444*oo*44<ooo444444444444444ooo    ",
"         ooo444444*oo*44<ooo444444444444444ooo    ",
"         ooo444444*oo*44<ooo444444444444444ooo    ",
"      XXX<<<444444*oo*44<ooo444444444444444ooo    ",
"      ooo444444444*oo*44<ooo444444444444444ooo    ",
"      ooo444444444*oo*44<ooo444444444444444ooo    ",
"   ...:::444444444,::,443:::444444444444444ooo    ",
"   ooo4444444444444444444444444444444444444ooo    ",
"   ooo4444444444444444444444444444444444444ooo    ",
"   ooo4444444444444441::>444444444444444444ooo    ",
"   ooo444444444444444:oo%444444444444444444ooo    ",
"   ooo444444444444444:oo%444444444444444444ooo    ",
"   XXX<<<444444444444>%%&444444444444444<<<XXX    ",
"      ooo4444444444444444444444444444444ooo       ",
"      ooo4444444444444444444444444444444ooo       ",
"      ooo4444444444444444444444444444444ooo       ",
"         ooooooooooooooooooooooooooooooo          ",
"         ooooooooooooooooooooooooooooooo          ",
"         ooooooooooooooooooooooooooooooo          ",
"                  .oo#++Oooo                      ",
"                  .oo#++Oooo                      ",
"                  .oo#++Oooo                      ",
"               Xoo@++@ooX                         ",
"               Xoo@++@ooX                         ",
"               Xoo@++@ooX                         ",
"                  .oo.                            ",
"                  .oo.                            ",
"                  .oo.                            "
};
